HIERARCHY
ROOT Hips
{
	OFFSET -0.001795 -0.223333 0.028219
	CHANNELS 6 Xposition Yposition Zposition Zrotation Yrotation Xrotation 
	JOINT LeftUpLeg
	{
		OFFSET 0.069520 -0.091406 -0.006815
		CHANNELS 3 Zrotation Yrotation Xrotation
		JOINT LeftLeg
		{
			OFFSET 0.034277 -0.375199 -0.004496
			CHANNELS 3 Zrotation Yrotation Xrotation
			JOINT LeftFoot
			{
				OFFSET -0.013596 -0.397961 -0.043693
				CHANNELS 3 Zrotation Yrotation Xrotation
				JOINT LeftToe
				{
					OFFSET 0.026358 -0.055791 0.119288
					CHANNELS 3 Zrotation Yrotation Xrotation
					End Site
					{
						OFFSET 0.000000 0.000000 0.000000
					}
				}
			}
		}
	}
	JOINT RightUpLeg
	{
		OFFSET -0.067670 -0.090522 -0.004320
		CHANNELS 3 Zrotation Yrotation Xrotation
		JOINT RightLeg
		{
			OFFSET -0.038290 -0.382569 -0.008850
			CHANNELS 3 Zrotation Yrotation Xrotation
			JOINT RightFoot
			{
				OFFSET 0.015774 -0.398415 -0.042312
				CHANNELS 3 Zrotation Yrotation Xrotation
				JOINT RightToe
				{
					OFFSET -0.025372 -0.048144 0.123348
					CHANNELS 3 Zrotation Yrotation Xrotation
					End Site
					{
						OFFSET 0.000000 0.000000 0.000000
					}
				}
			}
		}
	}
	JOINT Spine
	{
		OFFSET -0.002533 0.108963 -0.026696
		CHANNELS 3 Zrotation Yrotation Xrotation
		JOINT Spine1
		{
			OFFSET 0.005487 0.135180 0.001092
			CHANNELS 3 Zrotation Yrotation Xrotation
			JOINT Spine2
			{
				OFFSET 0.001457 0.052922 0.025425
				CHANNELS 3 Zrotation Yrotation Xrotation
				JOINT Neck
				{
					OFFSET -0.002778 0.213870 -0.042857
					CHANNELS 3 Zrotation Yrotation Xrotation
					JOINT Head
					{
						OFFSET 0.005152 0.064970 0.051349
						CHANNELS 3 Zrotation Yrotation Xrotation
						End Site
						{
							OFFSET 0.000000 0.000000 0.000000
						}
					}
				}
				JOINT LeftShoulder
				{
					OFFSET 0.078845 0.121749 -0.034090
					CHANNELS 3 Zrotation Yrotation Xrotation
					JOINT LeftArm
					{
						OFFSET 0.090977 0.030469 -0.008868
						CHANNELS 3 Zrotation Yrotation Xrotation
						JOINT LeftForeArm
						{
							OFFSET 0.259612 -0.012772 -0.027456
							CHANNELS 3 Zrotation Yrotation Xrotation
							JOINT LeftHand
							{
								OFFSET 0.249234 0.008986 -0.001171
								CHANNELS 3 Zrotation Yrotation Xrotation
								End Site
								{
									OFFSET 0.000000 0.000000 0.000000
								}
							}
						}
					}
				}
				JOINT RightShoulder
				{
					OFFSET -0.081759 0.118833 -0.038615
					CHANNELS 3 Zrotation Yrotation Xrotation
					JOINT RightArm
					{
						OFFSET -0.096012 0.032551 -0.009143
						CHANNELS 3 Zrotation Yrotation Xrotation
						JOINT RightForeArm
						{
							OFFSET -0.253742 -0.013329 -0.021401
							CHANNELS 3 Zrotation Yrotation Xrotation
							JOINT RightHand
							{
								OFFSET -0.255298 0.007772 -0.005559
								CHANNELS 3 Zrotation Yrotation Xrotation
								End Site
								{
									OFFSET 0.000000 0.000000 0.000000
								}
							}
						}
					}
				}
			}
		}
	}
}
MOTION
Frames: 8
Frame Time: 0.050000
-1.618454 0.949485 0.855570 -1.059116 1.104747 4.296577 -2.005145 -0.617765 -6.157913 4.812333 -0.500683 -0.153149 -7.993606 -10.775580 8.819431 0.000000 0.000000 0.000000 3.400309 0.032110 -1.093198 -3.480282 0.253816 -1.645454 -8.153194 -19.935219 13.471866 0.000000 0.000000 0.000000 -1.889785 0.048096 -0.220029 -2.742083 1.291553 1.312603 -0.046903 11.683174 1.590857 10.679451 -5.329484 -11.109292 0.000000 0.000000 0.000000 -18.989745 -8.454404 -0.819547 -42.971102 -6.793662 -1.441605 -115.669735 -54.360207 75.473360 0.000000 0.000000 0.000000 2.310852 20.555044 8.651640 5.746147 22.543411 -0.616464 -31.360976 32.814283 -6.484227 0.000000 0.000000 0.000000 
-1.620713 0.948539 0.859034 -1.166864 -0.821653 4.841179 -1.726877 -0.581165 -5.853395 4.626430 -0.432390 -0.953251 -6.980363 -9.392278 8.342486 0.000000 0.000000 0.000000 3.101759 0.017139 -1.046295 -2.895165 0.124854 -2.643565 -7.155511 -18.329168 12.622483 0.000000 0.000000 0.000000 -2.094683 0.102668 -2.111175 -2.179386 1.028636 1.782935 0.225349 8.322970 1.862318 7.943803 -4.091145 -9.701501 0.000000 0.000000 0.000000 -20.070848 -7.016071 -0.472654 -43.289714 -7.193011 -1.690980 -114.773283 -55.239271 78.328865 0.000000 0.000000 0.000000 4.235769 17.697684 7.388479 9.423575 20.672039 -0.367621 -41.855250 45.554388 -14.312333 0.000000 0.000000 0.000000 
-1.622490 0.948101 0.862157 -1.055439 -2.460231 4.757750 -1.675386 -0.464482 -4.691756 4.335839 -0.327292 -2.154240 -6.247520 -8.243560 8.257241 0.000000 0.000000 0.000000 2.746478 0.035616 -1.183871 -2.638287 0.132542 -2.076784 -6.444242 -17.138360 11.730018 0.000000 0.000000 0.000000 -2.220857 0.124092 -2.841877 -1.560188 0.737065 2.057898 -0.291691 5.628382 1.849622 6.570245 -3.560612 -8.687033 0.000000 0.000000 0.000000 -20.828477 -6.409907 0.118865 -43.320188 -7.986532 -1.720734 -114.771930 -56.707175 82.215897 0.000000 0.000000 0.000000 6.340264 14.682032 5.996955 13.346238 16.953936 -0.245166 -55.910509 59.552534 -29.176710 0.000000 0.000000 0.000000 
-1.624147 0.947373 0.864508 -1.118690 -4.260943 4.601800 -1.669268 -0.388074 -3.889443 4.407155 -0.312817 -2.606281 -5.327936 -6.937095 7.851844 0.000000 0.000000 0.000000 2.100545 0.001353 -0.796404 -1.583109 0.023545 -2.410593 -5.580695 -15.622206 10.928817 0.000000 0.000000 0.000000 -2.193874 0.153416 -3.814152 -1.218825 0.584637 2.188315 -0.328125 2.684300 2.655590 4.562585 -2.492612 -8.235157 0.000000 0.000000 0.000000 -21.257689 -5.190468 0.583390 -43.914897 -8.799343 -1.878191 -114.627864 -57.396113 85.234841 0.000000 0.000000 0.000000 7.425486 11.859721 4.380349 17.244420 13.748211 -0.232344 -76.181122 70.902099 -54.134356 0.000000 0.000000 0.000000 
-1.625729 0.946595 0.866062 -1.011661 -5.766631 4.534523 -1.571878 -0.333004 -3.316723 3.998072 -0.258071 -3.003962 -4.602357 -5.855313 7.610844 0.000000 0.000000 0.000000 1.532951 0.032775 -0.952914 -0.937576 -0.009149 -2.017076 -4.965776 -14.468936 10.094632 0.000000 0.000000 0.000000 -2.172721 0.173374 -4.316667 -0.936142 0.458678 2.256872 -0.672595 0.387501 2.710676 3.408958 -1.930508 -7.684316 0.000000 0.000000 0.000000 -22.124700 -4.414544 0.992162 -43.480229 -9.922678 -1.744584 -114.353478 -58.229482 87.608488 0.000000 0.000000 0.000000 8.316659 9.667689 3.060266 20.105015 9.178536 -0.562244 -124.873182 78.537756 -111.578560 0.000000 0.000000 0.000000 
-1.627112 0.946173 0.866784 -1.072632 -7.573228 4.270095 -1.423089 -0.271020 -2.666927 3.751576 -0.237342 -3.155413 -3.728330 -4.512493 7.360640 0.000000 0.000000 0.000000 1.255974 0.055413 -1.117141 -0.567286 -0.009303 -1.344256 -4.217681 -13.052862 9.358007 0.000000 0.000000 0.000000 -1.966505 0.194468 -4.727050 -0.835473 0.427550 2.383080 -0.507176 -1.526461 2.738501 1.717765 -0.958327 -7.036782 0.000000 0.000000 0.000000 -23.130247 -3.372665 1.247799 -43.270971 -10.095821 -1.959750 -115.118236 -58.118899 89.963575 0.000000 0.000000 0.000000 8.911204 8.034195 1.946797 21.925741 5.794752 -0.889271 -174.622058 75.034254 -171.240422 0.000000 0.000000 0.000000 
-1.628318 0.945640 0.867198 -0.929737 -8.767479 3.938051 -1.414697 -0.200116 -1.941470 3.418637 -0.190505 -3.527666 -3.195987 -3.664493 7.276586 0.000000 0.000000 0.000000 0.840786 0.058675 -1.023590 -0.225222 -0.021859 -0.997310 -3.758378 -12.109406 8.756707 0.000000 0.000000 0.000000 -1.699971 0.197479 -4.625595 -1.116560 0.586017 2.686038 -0.577032 -2.941564 2.514958 0.876468 -0.452245 -7.406118 0.000000 0.000000 0.000000 -23.892565 -3.078483 1.697517 -42.631473 -10.552511 -1.982091 -115.533980 -58.132900 91.484296 0.000000 0.000000 0.000000 8.965109 6.221191 0.906408 23.742946 2.658340 -1.323103 166.450780 66.604413 159.751831 0.000000 0.000000 0.000000 
-1.629319 0.945158 0.867348 -0.791003 -10.314339 3.577790 -1.159621 -0.148052 -1.409032 2.577576 -0.127456 -3.475648 -2.498433 -2.555614 7.123868 0.000000 0.000000 0.000000 0.528876 0.046215 -0.795609 -0.153438 -0.025171 -0.940655 -3.131599 -10.846252 8.209697 0.000000 0.000000 0.000000 -1.527270 0.207018 -4.702644 -1.330597 0.727661 3.254171 -0.226766 -3.586681 1.932271 -0.569137 0.481113 -6.889524 0.000000 0.000000 0.000000 -24.785453 -2.708971 1.951415 -42.059968 -10.400322 -2.157710 -115.318095 -58.106525 91.873043 0.000000 0.000000 0.000000 9.101403 5.210669 0.267688 24.676021 0.428400 -1.655904 160.616091 60.281396 146.208887 0.000000 0.000000 0.000000 
